<svg width="419" height="129" viewBox="0 0 419 129" fill="none" xmlns="http://www.w3.org/2000/svg">
  <path d="M296.965 37.227C296.965 37.227 274.863 74.4026 275.139 74.2357C275.414 74.0687 320.42 78.187 320.42 78.187L312.446 64.2739L292.578 64.0792L320.282 47.94L296.965 37.227Z" fill="white"/>
  <path d="M299.996 86.2009C299.996 86.2009 257.032 85.5053 257.308 85.6444C257.584 85.7835 276.541 127.161 276.541 127.161L284.516 113.248L274.747 95.8009L302.452 111.94L299.996 86.2009Z" fill="white"/>
  <path d="M259.465 113.331C259.465 113.331 238.576 75.46 238.576 75.7661C238.576 76.0722 212.555 113.331 212.555 113.331H228.477L238.576 96.0792V128.357L259.465 113.331Z" fill="white"/>
  <path d="M215.892 91.4878C215.892 91.4878 237.995 54.3122 237.719 54.4792C237.443 54.6183 192.437 50.5279 192.437 50.5279L200.412 64.4409L220.28 64.6357L192.548 80.7748L215.892 91.4878Z" fill="white"/>
  <path d="M212.859 42.5139C212.859 42.5139 255.823 43.2096 255.547 43.0705C255.271 42.9313 236.314 1.55395 236.314 1.55395L228.339 15.467L238.108 32.9139L210.403 16.7748L212.859 42.5139Z" fill="white"/>
  <path d="M253.393 15.3835C253.393 15.3835 274.282 53.2548 274.282 52.9487C274.282 52.6426 300.303 15.3835 300.303 15.3835H284.381L274.282 32.6357V0.357422L253.393 15.3835Z" fill="white"/>
  <path d="M256.37 74.82C262.512 74.82 267.491 69.7994 267.491 63.6061C267.491 57.4128 262.512 52.3922 256.37 52.3922C250.229 52.3922 245.25 57.4128 245.25 63.6061C245.25 69.7994 250.229 74.82 256.37 74.82Z" fill="white"/>
  <path d="M87.612 115.024H59.3662V45.8994H28.2458V115.024H0V23.3994H87.612V115.024Z" fill="white"/>
  <path d="M101.7 23.3994H132.445L145.131 61.1494L157.629 23.3994H186.437L156.379 94.1494C153.921 99.8577 151.776 104.129 149.943 106.962C148.11 109.754 145.381 112.066 141.757 113.899C138.174 115.691 133.237 116.587 126.946 116.587C123.613 116.587 117.885 116.108 109.761 115.149V96.2119C114.552 96.7119 118.052 96.9619 120.26 96.9619C126.8 96.9619 130.779 94.5244 132.195 89.6494L101.7 23.3994Z" fill="white"/>
  <path d="M393.42 77.5869L418.228 85.0869C416.562 92.0452 413.937 97.8577 410.355 102.524C406.772 107.191 402.314 110.712 396.982 113.087C391.691 115.462 384.942 116.649 376.735 116.649C366.778 116.649 358.633 115.212 352.301 112.337C346.01 109.42 340.573 104.316 335.991 97.0244C331.408 89.7327 329.117 80.3994 329.117 69.0244C329.117 53.8577 333.137 42.2119 341.177 34.0869C349.259 25.9202 360.674 21.8369 375.422 21.8369C386.962 21.8369 396.023 24.1702 402.606 28.8369C409.23 33.5036 414.146 40.6702 417.354 50.3369L392.357 55.8994C391.482 53.1077 390.566 51.0661 389.608 49.7744C388.025 47.6077 386.087 45.9411 383.796 44.7744C381.505 43.6077 378.943 43.0244 376.11 43.0244C369.694 43.0244 364.778 45.6077 361.362 50.7744C358.779 54.6077 357.487 60.6286 357.487 68.8369C357.487 79.0036 359.029 85.9827 362.112 89.7744C365.195 93.5244 369.527 95.3994 375.11 95.3994C380.526 95.3994 384.608 93.8786 387.358 90.8369C390.149 87.7952 392.17 83.3786 393.42 77.5869Z" fill="white"/>
</svg>
