<svg width="294" height="100" viewBox="0 0 319 124" fill="none" xmlns="http://www.w3.org/2000/svg">
  <g filter="url(#filter0_ddd)">
    <path d="M221.255 28.4871L236.319 35.4072L217.728 46.2359L216.158 47.1502L217.974 47.168L231.617 47.3017L236.587 55.972L236.189 55.9356C235.325 55.8569 234.092 55.7446 232.611 55.6102C229.65 55.3414 225.7 54.9841 221.743 54.6306C217.787 54.277 213.824 53.927 210.837 53.6728C209.344 53.5457 208.094 53.4423 207.211 53.3744C206.971 53.3561 206.758 53.3402 206.574 53.3272C206.638 53.2159 206.709 53.0922 206.788 52.9566C207.192 52.2568 207.781 51.2498 208.493 50.0367C209.918 47.6108 211.837 44.365 213.762 41.115C215.686 37.8651 217.617 34.6115 219.067 32.1703C219.792 30.9497 220.396 29.9323 220.82 29.22L221.255 28.4871ZM224.311 79.2953L205.73 68.4724L204.147 67.5504L205.042 69.1488L211.752 81.1316L206.786 89.7956L206.619 89.4324C206.255 88.6391 205.735 87.5056 205.111 86.1452C203.862 83.4244 202.194 79.7955 200.521 76.1635C198.847 72.5316 197.167 68.8961 195.894 66.1622C195.257 64.7954 194.721 63.6529 194.338 62.8485C194.235 62.6316 194.143 62.4386 194.062 62.2722C194.188 62.2724 194.327 62.2729 194.48 62.2737C195.283 62.2776 196.443 62.2887 197.841 62.3047C200.637 62.3367 204.383 62.3885 208.136 62.4433C211.889 62.4982 215.648 62.5561 218.469 62.6003C219.879 62.6224 221.055 62.641 221.878 62.6542L222.725 62.6677L224.311 79.2953ZM180.62 90.7506V69.0995V67.2559L179.688 68.8469L172.752 80.693H162.835L163.07 80.3566C163.569 79.6419 164.282 78.6208 165.137 77.3948C166.847 74.9428 169.128 71.6711 171.408 68.3927C173.689 65.1144 175.97 61.8289 177.681 59.3493C178.536 58.1097 179.249 57.0706 179.749 56.3343C179.883 56.1373 180.002 55.9615 180.104 55.809C180.167 55.9194 180.237 56.0424 180.314 56.1771C180.714 56.8809 181.285 57.899 181.971 59.1281C183.344 61.586 185.174 64.8836 187.005 68.1885C188.835 71.4933 190.666 74.8048 192.038 77.2902C192.725 78.5328 193.297 79.5689 193.697 80.2944L194.112 81.0462L180.62 90.7506ZM164.016 65.2392L148.934 58.3189L167.543 47.4903L169.115 46.5759L167.297 46.5581L153.654 46.4244L148.683 37.7535L149.083 37.7897C149.946 37.8679 151.179 37.9795 152.66 38.1132C155.621 38.3805 159.572 38.7359 163.528 39.0882C167.485 39.4406 171.448 39.7899 174.434 40.0451C175.927 40.1727 177.177 40.2768 178.06 40.346C178.3 40.3649 178.515 40.3812 178.699 40.3947C178.635 40.507 178.563 40.6322 178.483 40.7695C178.079 41.4693 177.491 42.4763 176.778 43.6894C175.353 46.1152 173.434 49.3611 171.509 52.6111C169.585 55.861 167.654 59.1146 166.204 61.5558C165.479 62.7764 164.875 63.7938 164.451 64.5061L164.016 65.2392ZM160.958 14.4308L179.539 25.2537L181.122 26.1757L180.227 24.5773L173.517 12.5945L178.484 3.93051L178.65 4.29366C179.014 5.08701 179.534 6.22046 180.159 7.5809C181.408 10.3018 183.075 13.9306 184.749 17.5626C186.422 21.1945 188.102 24.83 189.376 27.564C190.012 28.9307 190.548 30.0732 190.931 30.8776C191.034 31.0945 191.127 31.2875 191.207 31.454C191.082 31.4537 190.942 31.4532 190.79 31.4525C189.986 31.4485 188.827 31.4374 187.429 31.4214C184.633 31.3894 180.886 31.3376 177.133 31.2828C173.38 31.2279 169.621 31.17 166.801 31.1258C165.39 31.1037 164.215 31.0851 163.391 31.0719L162.545 31.0584L160.958 14.4308ZM204.652 2.97551V24.6266V26.4702L205.584 24.8792L212.519 13.0331H222.436L222.201 13.3695C221.703 14.0842 220.99 15.1053 220.135 16.3313C218.424 18.7833 216.144 22.055 213.863 25.3334C211.583 28.6117 209.302 31.8972 207.591 34.3768C206.736 35.6164 206.022 36.6555 205.522 37.3918C205.389 37.5888 205.27 37.7646 205.167 37.9171C205.104 37.8067 205.034 37.6837 204.958 37.549C204.558 36.8452 203.987 35.8271 203.3 34.598C201.928 32.1401 200.098 28.8425 198.267 25.5376C196.437 22.2328 194.606 18.9213 193.233 16.4359C192.547 15.1933 191.975 14.1572 191.574 13.4317L191.159 12.6799L204.652 2.97551ZM199.891 46.3364C199.891 50.4055 196.62 53.6972 192.594 53.6972C188.569 53.6972 185.298 50.4055 185.298 46.3364C185.298 42.2673 188.569 38.9756 192.594 38.9756C196.62 38.9756 199.891 42.2673 199.891 46.3364Z" fill="url(#paint0_linear)" stroke="url(#paint1_linear)"/>
    <path d="M32.159 33.924V81.8796H13.3562V18.6518H73.78V81.8796H54.9772V33.924V33.424H54.4772H32.659H32.159V33.924ZM123.729 18.6518H142.81L122.033 67.5488C122.033 67.5491 122.033 67.5494 122.032 67.5497C120.313 71.5418 118.822 74.5046 117.56 76.4552C116.333 78.3237 114.494 79.8905 112.016 81.1441C109.602 82.3509 106.229 82.9749 101.857 82.9749C99.6128 82.9749 95.7697 82.6596 90.3086 82.0224V69.7465C93.3899 70.0595 95.6806 70.2181 97.1689 70.2181C99.5186 70.2181 101.463 69.781 102.961 68.8629C104.472 67.9376 105.489 66.5484 106.017 64.7316L106.069 64.5525L105.991 64.383L84.9375 18.6518H105.353L114.132 44.7733L114.609 46.194L115.081 44.7712L123.729 18.6518ZM290.972 80.5647L290.971 80.5653C287.347 82.1918 282.691 83.0187 276.981 83.0187C270.044 83.0187 264.412 82.0167 260.059 80.0414C255.756 78.0462 252.012 74.5446 248.839 69.4958C245.69 64.4859 244.096 58.0434 244.096 50.1343C244.096 39.5899 246.89 31.5698 252.407 25.9953C257.955 20.3904 265.815 17.5565 276.061 17.5565C284.09 17.5565 290.328 19.1808 294.83 22.3714L294.831 22.3722C299.248 25.4836 302.581 30.2335 304.806 36.6675L288.27 40.3467C287.692 38.5891 287.076 37.2437 286.408 36.3438C285.255 34.7652 283.837 33.5445 282.158 32.6898C280.475 31.8327 278.599 31.4087 276.543 31.4087C271.885 31.4087 268.279 33.2973 265.787 37.0639C263.893 39.876 262.987 44.2184 262.987 50.0028C262.987 57.1417 264.061 62.1921 266.341 64.9952L266.343 64.9973C268.614 67.7596 271.803 69.1228 275.842 69.1228C279.731 69.1228 282.747 68.0287 284.797 65.7626C286.746 63.6387 288.154 60.6274 289.049 56.7708L305.473 61.7353C304.314 66.3553 302.537 70.2098 300.155 73.3128C297.693 76.5185 294.634 78.934 290.972 80.5647Z" fill="url(#paint2_linear)" stroke="url(#paint3_linear)"/>
  </g>
  <defs>
    <filter id="filter0_ddd" x="0.856201" y="0" width="317.215" height="123.726" filterUnits="userSpaceOnUse" color-interpolation-filters="sRGB">
      <feFlood flood-opacity="0" result="BackgroundImageFix"/>
      <feColorMatrix in="SourceAlpha" type="matrix" values="0 0 0 0 0 0 0 0 0 0 0 0 0 0 0 0 0 0 127 0"/>
      <feOffset dy="20"/>
      <feGaussianBlur stdDeviation="6"/>
      <feColorMatrix type="matrix" values="0 0 0 0 0.192 0 0 0 0 0.58304 0 0 0 0 0.608 0 0 0 0.2 0"/>
      <feBlend mode="multiply" in2="BackgroundImageFix" result="effect1_dropShadow"/>
      <feColorMatrix in="SourceAlpha" type="matrix" values="0 0 0 0 0 0 0 0 0 0 0 0 0 0 0 0 0 0 127 0"/>
      <feOffset dy="8"/>
      <feGaussianBlur stdDeviation="5"/>
      <feColorMatrix type="matrix" values="0 0 0 0 0 0 0 0 0 0.572549 0 0 0 0 0.74902 0 0 0 0.3 0"/>
      <feBlend mode="multiply" in2="effect1_dropShadow" result="effect2_dropShadow"/>
      <feColorMatrix in="SourceAlpha" type="matrix" values="0 0 0 0 0 0 0 0 0 0 0 0 0 0 0 0 0 0 127 0"/>
      <feOffset dy="2"/>
      <feGaussianBlur stdDeviation="0.5"/>
      <feColorMatrix type="matrix" values="0 0 0 0 0.607843 0 0 0 0 0.906902 0 0 0 0 0.972549 0 0 0 1 0"/>
      <feBlend mode="normal" in2="effect2_dropShadow" result="effect3_dropShadow"/>
      <feBlend mode="normal" in="SourceGraphic" in2="effect3_dropShadow" result="shape"/>
    </filter>
    <linearGradient id="paint0_linear" x1="192.636" y1="2" x2="192.636" y2="91.7261" gradientUnits="userSpaceOnUse">
      <stop stop-color="#E7F0FD"/>
      <stop offset="1" stop-color="white"/>
    </linearGradient>
    <linearGradient id="paint1_linear" x1="192.636" y1="2" x2="192.636" y2="91.7261" gradientUnits="userSpaceOnUse">
      <stop stop-color="#D7F5FC"/>
      <stop offset="1" stop-color="#D7E6FC"/>
    </linearGradient>
    <linearGradient id="paint2_linear" x1="159.464" y1="17.0565" x2="159.464" y2="83.5187" gradientUnits="userSpaceOnUse">
      <stop stop-color="#E7F0FD"/>
      <stop offset="1" stop-color="white"/>
    </linearGradient>
    <linearGradient id="paint3_linear" x1="159.464" y1="17.0565" x2="159.464" y2="83.5187" gradientUnits="userSpaceOnUse">
      <stop stop-color="#D7F5FC"/>
      <stop offset="1" stop-color="#D7E6FC"/>
    </linearGradient>
  </defs>
</svg>
